<svg xmlns="http://www.w3.org/2000/svg" viewBox="0 0 64 64" role="img" aria-label="Times Search">
  <style>
    .glyph { fill: #1a1712; }
    @media (prefers-color-scheme: dark) { .glyph { fill: #f4efe2; } }
  </style>
  <!-- "TS" in UnifrakturMaguntia (the NYT-style blackletter), as vector outlines.
       Font units flipped (scale y -1) and scaled to fit. -->
  <g class="glyph" transform="translate(3.2, 45.6) scale(0.018795, -0.018795)">
    <path d="M539 711Q486 674 385 674Q243 677 146.0 768.0Q49 859 49 993Q49 1187 202.0 1324.0Q355 1461 588 1462Q786 1463 961.5 1369.0Q1137 1275 1269 1180Q1361 1111 1439 1180Q1461 1200 1477.0 1184.5Q1493 1169 1474 1151L1302 1007Q1187 923 1039 1021Q896 1120 738.5 1204.0Q581 1288 450 1288Q296 1288 204.5 1201.0Q113 1114 112 1003Q107 740 377 713Q454 704 515 748Q538 762 549.0 744.0Q560 726 539 711ZM103 392Q223 489 308 524Q430 576 497 506Q683 314 808.0 226.5Q933 139 1024.5 120.0Q1116 101 1186.0 133.0Q1256 165 1333 212Q1363 232 1376.0 214.5Q1389 197 1366 178Q1270 99 1164.0 41.5Q1058 -16 931.5 -17.5Q805 -19 652.0 52.0Q499 123 309 303Q246 364 185 363Q152 363 115 345Q91 334 82.5 352.0Q74 370 103 392ZM784 1113Q711 1056 745.0 992.5Q779 929 891 843Q1085 693 1069.5 558.0Q1054 423 796 327Q775 318 765.5 333.0Q756 348 775 360Q873 423 846.5 496.0Q820 569 696 664Q550 773 536.5 895.5Q523 1018 758 1144Q782 1157 794.0 1143.5Q806 1130 784 1113Z" />
    <path transform="translate(1560,0)" d="M1382 1348Q1405 1376 1428.5 1357.5Q1452 1339 1425 1313Q1349 1241 1298.5 1194.5Q1248 1148 1205 1124Q1127 1079 1052.5 1097.5Q978 1116 842 1185Q700 1257 584.0 1262.5Q468 1268 367 1171Q268 1076 238.5 980.5Q209 885 212 783Q219 543 425.5 381.5Q632 220 936 228Q1149 232 1303.0 324.0Q1457 416 1432 599Q1411 744 1282.0 753.5Q1153 763 996 663Q790 532 697.0 547.0Q604 562 439 789Q419 815 438.0 826.0Q457 837 475 810Q535 721 629.5 756.5Q724 792 838 858Q915 901 983.0 936.5Q1051 972 1156 947Q1256 922 1351.5 840.0Q1447 758 1477 632Q1502 522 1473.0 432.0Q1444 342 1396 270Q1307 135 1156.5 56.0Q1006 -23 813 -23Q528 -23 289.0 168.0Q50 359 56 696Q64 1173 770 1455Q804 1469 841 1451Q1151 1298 1249.5 1301.0Q1348 1304 1382 1348Z" />
  </g>
</svg>
